/* XPM */
static char *bitcoin32[] = {
/* columns rows colors chars-per-pixel */
"32 32 92 1 ",
"  c None",
". c #269941",
"X c #289B41",
"o c #16B14B",
"O c #16B24B",
"+ c #12B14C",
"@ c #16B24C",
"# c #1BB24B",
"$ c #1BB34B",
"% c #32A544",
"& c #30A745",
"* c #39A141",
"= c #20B34B",
"- c #20B44B",
"; c #25B44A",
": c #25B54A",
"> c #26B54A",
", c #2AB54A",
"< c #2AB64A",
"1 c #2BB64A",
"2 c #2EB64A",
"3 c #2FB64A",
"4 c #3DB046",
"5 c #3CB347",
"6 c #33B749",
"7 c #30B74A",
"8 c #34B749",
"9 c #34B849",
"0 c #39B849",
"q c #3EB949",
"w c #3DBA49",
"e c #3EBA49",
"r c #43AB43",
"t c #45B045",
"y c #49B245",
"u c #4FB545",
"i c #4DBA47",
"p c #43BA48",
"a c #43BB48",
"s c #46BB48",
"d c #47BB48",
"f c #48BB48",
"g c #48BC48",
"h c #4CBC48",
"j c #4DBD48",
"k c #52BA46",
"l c #51BD47",
"z c #52BD47",
"x c #52BE47",
"c c #55BE47",
"v c #57BF47",
"b c #5BBF47",
"n c #5CBD46",
"m c #5CBF47",
"M c #5BC047",
"N c #5CC047",
"B c #60C046",
"V c #61C146",
"C c #65C146",
"Z c #65C246",
"A c #66C246",
"S c #69C246",
"D c #6AC246",
"F c #6FC345",
"G c #6FC445",
"H c #73C445",
"J c #74C445",
"K c #78C545",
"L c #79C545",
"P c #79C645",
"I c #7EC644",
"U c #7EC744",
"Y c #83C744",
"T c #83C844",
"R c #84C844",
"E c #8CC943",
"W c #8DC943",
"Q c #8DCA43",
"! c #8ECA43",
"~ c #88C844",
"^ c #88C944",
"/ c #91CA43",
"( c #92CA43",
") c #96CB43",
"_ c #96CC43",
"` c #9BCC42",
"' c #9CCD42",
"] c #A0CD42",
"[ c #A1CE42",
"{ c #A5CE42",
"} c #A6CF42",
"| c #AACF41",
/* pixels */
"           ||    ||             ",
"           }{    {}             ",
"           []    ][             ",
"           '`    `'             ",
"           _))   ))             ",
"        ///(((//////////        ",
"         !!QWQ!!!!!!!!QWWE      ",
"           ^~           ~~      ",
"           TY           RYY     ",
"           UI            UI     ",
"           PLKKLLLK      LL     ",
"         HHJJJJJJJJJH    JJ     ",
"     GGFGFFFFFGGG        FG     ",
"      DDDDDDDDDDDDSS    DD      ",
"       CCCCCCCCCCCCCCCZAAA      ",
"        VBBBBBBBBBBBBBnut       ",
"         NmNNMbbbbbMmy%&4i      ",
"           *rkvvvv      zc      ",
"           .X            xl     ",
"           55            jh     ",
"           ds            gfd    ",
"           ap            apa    ",
"           eq            wq     ",
"           00            00     ",
"           88           689     ",
"           332       22337      ",
"        <,,,,,,,,,,,,,,<1       ",
"           :;>  >;:>            ",
"           -=    =-             ",
"           $#    #$             ",
"           @o    oO             ",
"           ++    ++             "
};
