/* XPM */
static char *bitcoin128[] = {
/* columns rows colors chars-per-pixel */
"128 128 64 1 ",
"  c None",
". c #0B7834",
"X c #12833C",
"o c #128D42",
"O c #1A8D45",
"+ c #169246",
"@ c #199447",
"# c #1D974A",
"$ c #1F994B",
"% c #228E48",
"& c #22974D",
"* c #229B4E",
"= c #259F50",
"- c #2C9E51",
"; c #359C56",
": c #26A051",
"> c #2BA355",
", c #32A556",
"< c #31A75C",
"1 c #3EA45B",
"2 c #34AB5B",
"3 c #38AE5D",
"4 c #3DB05F",
"5 c #38AE63",
"6 c #3DB161",
"7 c #3FB36A",
"8 c #45AC5F",
"9 c #46AA63",
"0 c #4AAF63",
"q c #43B464",
"w c #4DB164",
"e c #4AB867",
"r c #41B46B",
"t c #4AB768",
"y c #4DB96A",
"u c #53B46C",
"i c #54BC6E",
"p c #5CBA6C",
"a c #46B770",
"s c #4DBA75",
"d c #57BD71",
"f c #5EBF76",
"g c #56BD7E",
"h c #5BBE7B",
"j c #63BD6E",
"k c #62BF76",
"l c #7EC55E",
"z c #6CC16D",
"x c #75C366",
"c c #7AC462",
"v c #71C269",
"b c #65C073",
"n c #69C170",
"m c #9CCB47",
"M c #94C94D",
"N c #99CA49",
"B c #87C757",
"V c #8AC756",
"C c #8DC853",
"Z c #85C65A",
"A c #90C851",
"S c #4DBB86",
"D c #48BA8A",
"F c #52BC82",
/* pixels */
"                                            mmmm                  mmmm                                                          ",
"                                           mmmmmm                mmmmmm                                                         ",
"                                          mmmmNmN                mmNmmNN                                                        ",
"                                          NNNNNmNN               NNNNNNN                                                        ",
"                                          mNNNNNNm               NNNNNNN                                                        ",
"                                          MmNMmMNM               NMNMNNN                                                        ",
"                                          MMMNMNMN               NMNNMNM                                                        ",
"                                          MNNMNMMM               MNMMNMN                                                        ",
"                                          MMMMMMMN               MMMMNMM                                                        ",
"                                          MMMMMMMM               MMMMMMM                                                        ",
"                                          MMMMMMMM               MMMMMMM                                                        ",
"                                          MMMMMMMM               MAMMMMM                                                        ",
"                                          AMMAMAAA               AMACMMA                                                        ",
"                                          MAAAAMAM               MAMMACM                                                        ",
"                                          AAAAAAAA               MACCMAC                                                        ",
"                                          AAAAACAA               AAAAAAA                                                        ",
"                                          ACACAACA               ACAAACA                                                        ",
"                                          ACCCCACC               CCCCCCC                                                        ",
"                                          CCCCCCCC              CCCCCCCC                                                        ",
"                                CCVCVVVVCVCCVCCVCCCCCCCCCCCCCAVACCCCCCCCCCCCCCCCCVCCVC                                          ",
"                               VVVCCCVVVVCCVVCCCCCCCVVCCVVCCVVVVVVVVVCVCVVVVCCVCVVVVVCCVCC                                      ",
"                              VVVVCCVVVVVVVVCCVVBBVBVVVVVVVBVVVVVVVVVVVVVVVVVVVCVVVVVVVVZCVC                                    ",
"                              VVVVVVVVVVVVVVZCVVVVVVVVVVVVVVVVVVVVVVVVVVVVVVVVCZVVVVVVVVZCVCVV                                  ",
"                              VVVVVVVVVVVVVVCZVVVVVBVVVVVVVVVVVVVVVVVVVVVVVVVVVVVVVVVVVVVCZVZVVV                                ",
"                              VBZZVVVVVZVZVVVVZZBBVBBVBBBBBBVBBBVVVZVVZZVZCZVVVVVVVZVVZVZVZVZVZVZ                               ",
"                               BZZZVVZVVZVZZZZZZBBBBBBVZBBBBBBZBVVZVZVVZZVVZZZZZVVVZZVVZZVVZZZVZZZ                              ",
"                                  ZZZZZZ VVZZVZZBZBBBBZZZBBZBBBBZVZZVZZZZVZZVZZVZVZZZBZBVZZZZZZZVZZ                             ",
"                                          ZZZZZZZZ                                   BZZZVZZZZZZZVZZ                            ",
"                                          ZZZZZZZZ                                      ZZZZZZZZZZcZ                            ",
"                                          ZZZZZZZZ                                        ZZZZZZZZZZZ                           ",
"                                          ZZcZZcZZ                                         ZZZZZZZZZZZ                          ",
"                                          ZZZZZZZZ                                           ZcZZcZZZZ                          ",
"                                          ZcZcZZZc                                           ZZZZcZcZZZ                         ",
"                                          lZlZZcZc                                            cccZZcZcc                         ",
"                                          llllcZcZ                                             ZZcZZcZZ                         ",
"                                          lllllcZc                                             lcZccccZc                        ",
"                                          cZlZcZZc                                              ZcZxZZcc                        ",
"                                          cccccccZ                                              xZxZccxZ                        ",
"                                          Zccccccc                                              ZxZxxZcZ                        ",
"                                          ccccZccc                                              Zxcccccx                        ",
"                                          cccccccc   cccccccccccccccc                           xZxxZxxZ                        ",
"                                          ccxccccccccxxcccccccccxccccxcc                        xxvZxxZvv                       ",
"                                          ccxcxcxcccccxccxcxxcxcccxcxcxccc                      cxxxZxvZx                       ",
"                                         ccxcxcxcxxcxcxccxxcxxcxxccxcxcxxcxc                    xvZxxxxxx                       ",
"                                        xxxxxcxcxxxxxcxcxcxcxcxcxxxxxcxcxxxxx                   xxxxZvvv                        ",
"                                    xxxxcxcxxxxxxxcxxxxxxxxxxxxxcxcxxxxxxxcxxxx                 cxxxxvZx                        ",
"                                 xxxxxxxxxxxxxxxxxxxxxxxxxxxxxxxxxxxxxxxxxxxxxxx                xxxxxxxx                        ",
"               xx           vxxxxxvxxvxxvxxvxxvxxxvxxxvxxxvxxxvxvxvxxxvxxvxxxxxvx               xvxxvxxv                        ",
"               vxvvxvvxvxvxxvxxvvxxxvxvxxvxxxvxvxvxvxxvxvxvvxvvxxxvxvxvxvxvxvxvxxv             vxxxxvxvx                        ",
"                xvvvvxvvvvvvvvvvvvvvvxvvxvzxvvxxxvvxvvvvvxvxvv               vvvvvv            vzxzvvxvv                        ",
"                 vvvvvvvvvvvvvvvvvvvvvvvvvvvvvvzzvvxvvvvvv                       vvv          vvxzzxzxv                         ",
"                  vvvvvvvvvvvvvvvvvvvvvvvvvvzxzxvvvzvvvvvzvzvvvvv                             vvzxvvxzv                         ",
"                  vvvvvvvzvvxzzxvvvvvvvvzxzvxzzxvvvvzvvvvvzxzxzxzvvvzvv                      vvvzzxzvv                          ",
"                   vvzvzvzvzzxzzvvnvnvvnxzzvzxzzzzvzvzvzzxvzzzvznvvzvzzvzvv                 zvzvxzzvvz                          ",
"                    zvzzxzzvzzzznvvznvvnzvzxzzzzzzzvzzzzzzzzzvzzvvnvzvzvvvvzzv             zzvzzzvzvz                           ",
"                     zzzzzzzzzzzvnzzvzzvzzzzzzzzzvzvzvzzzvzvzzzzzzvzzzzzznzzzzzz         zzvzzzvzzzzz                           ",
"                      zzzzzzzzzznvzzzzzzzzzzzzzzzzzzzzzzzzzzzzzzzzzzzzzzzzzzzzzzzzz    zzzzzzzzzzzzz                            ",
"                       nzzznzznzznznzznznznzznznzznznzznzzznnzzzzzznzznzzzzznzzzzzznzzzzzznznzznzzz                             ",
"                        nzzzznzzzznzznzzznzzzzznzzzzzznznzzzzzzznzzznznznzzzzznzznzznzzznzzzzzzzzz                              ",
"                         znnznnnnnznznnnnznnnznznnznnnzznznnnnnzznnznnznnznnnnznznnzznnnnnnznnznn                               ",
"                          nnnnnnnnnnnnnnnnzznnznnnznnnnnnnznnzznnnnnnnnnnnnnnnnnnnnnnnnnnnnnzjz                                 ",
"                           nnnnnnnnnnnnnnnjnnnnkbnnnbnnjnnjnnnknnnnnnnnnnnnnnnnnnknnnnnnnnnzjj                                  ",
"                             nnnnnnnnnnnnknnnnnnnnbnnnbznnbbbnbnbnbnnbbnnbnbnnnnnnnnnbnnnnpw>#                                  ",
"                              nbnbbbbbbbbnnkbbbbbbbbbbbbbbbnbnbbbbbbbnbbnbbbbbbbbbbbnbbbp8-#&=>5                                ",
"                                bbbbbbbbbbbbnkkkbbbbbbkbkbbbbbbbbbbbbbbbbbbbbbbbkjnkjpw,&#$:>>244                               ",
"                                 bbbbbbbbbbbbnnkkbbbbbnnbbbbbbkbbbjbbbbbbhbbbbbbkdu8-&@#*:>,2344qe                              ",
"                                   bbkkbbbbbbbkkkbbbkbbkbkbkkbbbbfjfbbbbbbbbbhb    +O#*:>22367qeyii                             ",
"                                     kkkkkkkkkkkbkkkbhkkkkkkkkkkbbbbbhbhbhbhb          >2366qyyidffb                            ",
"                                       kkkkbkkkkkkkkkkkkkkkkkkkkffbhbbbbbhb              6eeyidffbfbb                           ",
"                                         ;5ufkkkkkkkkkkkkkkkkkhkhbbhbhhb                   idhfbfhbbfb                          ",
"                                          ..%;9ukhhkkkkkkkkkkkkkbhbb                        ffbhbhbhhb                          ",
"                                          XOX.oO&5  hkhhkhkhhk                               fffbhhhbff                         ",
"                                          OOOOOOOO                                            bFhbhhbhhh                        ",
"                                          &&&&&&&&                                             bhhhbhhbh                        ",
"                                          >->>-=-=                                              hbhhbhhhh                       ",
"                                          <<<<5<55                                              hhhhhhhhh                       ",
"                                          55555555                                               hhhhhhhh                       ",
"                                          7rr7r7rr                                               hhhhhhhhh                      ",
"                                          aaaaaaaa                                               gghhhghhg                      ",
"                                          gsssssss                                                ghFhhFgg                      ",
"                                          hFhhgghh                                                FhghFhgg                      ",
"                                          FhFhhgFF                                                hggFhhgh                      ",
"                                          FFFhFgFh                                                gggghFgg                      ",
"                                          FFFFgFhF                                                FggFFgFg                      ",
"                                          FFhFFgFF                                                FFgFgFFF                      ",
"                                          FFFFFFFF                                                FFFFFFFg                      ",
"                                          FFFFFFFF                                                FFFFFFFF                      ",
"                                          FFFFFFFF                                                FFFSFFFF                      ",
"                                          FSFFSFFS                                                FSFFSFSF                      ",
"                                          SFSFFSFS                                               FSFFSFSFF                      ",
"                                          FFSFSFSF                                               FSFSFSFSS                      ",
"                                          SSSSSSSD                                               SSSSSSSS                       ",
"                                          SSSSSSDD                                              SSSSSSSSS                       ",
"                                          SSSSDSDD                                              DSSSSSDSS                       ",
"                                          DSDSSDDD                                             DSDDSDSSD                        ",
"                                          SDSDSSDD                                            DDSSSDSSDS                        ",
"                                          DDDDDDDD                                           DDDDDDSDSD                         ",
"                                          DDDDDDDD                                          DDDDDDSDDDD                         ",
"                                          DDDDDDDD                                         DDDDDDDDDDD                          ",
"                                          DDDDDDDD                                        DDDDDDDDDDD                           ",
"                                          DDDDDDDD                                      DDDDDDDDDDDDD                           ",
"                                         DDDDDDDDD                                  DDDDDDDDDDDDDDDD                            ",
"                                DDDDDDDDDDDDDDDDDDDDDDDDDDDDDDDDDDDDDDDDDDDDDDDDDDDDDDDDDDDDDDDDDDD                             ",
"                               DDDDDDDDDDDDDDDDDDDDDDDDDDDDDDDDDDDDDDDDDDDDDDDDDDDDDDDDDDDDDDDDDDD                              ",
"                              DDDDDDDDDDDDDDDDDDDDDDDDDDDDDDDDDDDDDDDDDDDDDDDDDDDDDDDDDDDDDDDDDDD                               ",
"                              DDDDDDDDDDDDDDDDDDDDDDDDDDDDDDDDDDDDDDDDDDDDDDDDDDDDDDDDDDDDDDDDD                                 ",
"                              DDDDDDDDDDDDDDDDDDDDDDDDDDDDDDDDDDDDDDDDDDDDDDDDDDDDDDDDDDDDDDDD                                  ",
"                              DDDDDDDDDDDDDDDDDDDDDDDDDDDDDDDDDDDDDDDDDDDDDDDDDDDDDDDDDDDDDD                                    ",
"                               DDDDDDDDDDDDDDDDDDDDDDDDDDDDDDDDDDDDDDDDDDDDDDDDDDDDDDDDDD                                       ",
"                                DDDDDDDDDDDDDDDDDDDDDDDDDDDDDDDDDDDDDDDDDDDDDDDDDDDDD                                           ",
"                                          DDDDDDDD              DDDDDDDD                                                        ",
"                                          DDDDDDDD               DDDDDDD                                                        ",
"                                          DDDDDDDD               DDDDDDD                                                        ",
"                                          DDDDDDDD               DDDDDDD                                                        ",
"                                          DDDDDDDD               DDDDDDD                                                        ",
"                                          DDDDDDDD               DDDDDDD                                                        ",
"                                          DDDDDDDD               DDDDDDD                                                        ",
"                                          DDDDDDDD               DDDDDDD                                                        ",
"                                          DDDDDDDD               DDDDDDD                                                        ",
"                                          DDDDDDDD               DDDDDDD                                                        ",
"                                          DDDDDDDD               DDDDDDD                                                        ",
"                                          DDDDDDDD               DDDDDDD                                                        ",
"                                          DDDDDDDD               DDDDDDD                                                        ",
"                                          DDDDDDDD               DDDDDDD                                                        ",
"                                          DDDDDDDD               DDDDDDD                                                        ",
"                                          DDDDDDD                DDDDDDD                                                        ",
"                                           DDDDDD                DDDDDD                                                         ",
"                                            DDDD                  DDDD                                                          "
};
