/* XPM */
static char *dummy[]={
"64 64 419 2",
"Qt c None",
".a c #000000",
"ee c #00ff00",
"ed c #ffffff",
"bA c #008000",
"ex c #005500",
".e c #00aa00",
"dY c #008000",
".E c #006600",
"ev c #008000",
"dF c #006d00",
"dP c #009200",
"dT c #009224",
"aM c #008000",
"#. c #00711c",
"#k c #1a801a",
".u c #178b17",
".j c #158015",
".q c #148914",
"es c #148927",
"bB c #128012",
"ek c #379237",
".p c #118811",
".b c #108010",
".J c #0f780f",
"dE c #0e800e",
"#t c #0d790d",
"eD c #0b8516",
"bp c #0b8a15",
".O c #0a7a14",
"ea c #0a8014",
"dn c #118011",
"cM c #108410",
"cL c #108010",
".T c #0f830f",
".1 c #0f830f",
"eh c #158015",
"ds c #0e8315",
"#u c #0d8014",
".# c #0d8314",
"df c #138313",
"dX c #0c8212",
".X c #128212",
"dt c #0b8211",
".K c #108216",
"aA c #108015",
"dM c #107d10",
"#G c #108210",
"bG c #0f8014",
".k c #0f8014",
".2 c #0e8413",
"bf c #0e8213",
".6 c #128412",
"cx c #0d8012",
"#b c #118011",
"ez c #118215",
"eo c #188318",
"eb c #108114",
"eE c #148118",
"e# c #0f8013",
"#f c #0f8313",
".D c #0f810f",
"cH c #0f8112",
"#H c #0f8012",
"ep c #0e8112",
"bQ c #0e8111",
"#T c #108313",
"bg c #108113",
"dU c #108313",
"dS c #0f8112",
"ar c #0f8012",
"eg c #18831b",
"dO c #0f8112",
"eG c #128115",
"a7 c #0e7e11",
"bR c #0e8111",
"#U c #108113",
"cT c #108013",
"aZ c #0f8012",
"d1 c #0e8113",
"e. c #0e8013",
"ew c #108215",
"#7 c #108112",
"eF c #108115",
"dJ c #108112",
"cy c #108112",
".A c #0f8212",
"d0 c #128216",
"eA c #0f8013",
".z c #0f8013",
".x c #0e8013",
"dC c #108213",
"#c c #0e8312",
".5 c #0e8212",
"c8 c #108212",
"#e c #0e8012",
".f c #108112",
".U c #108213",
".P c #0f8113",
".N c #0f8013",
"#l c #0f8213",
".F c #0f8113",
"#6 c #0f7f11",
".d c #118013",
"bF c #0e8012",
"b3 c #108012",
"el c #128213",
"c. c #108011",
"d9 c #108011",
".Y c #108213",
"aY c #108013",
"et c #0f8112",
".W c #0f8012",
".v c #0f8012",
"c7 c #0f8012",
"d2 c #0f8012",
".3 c #0e8112",
"## c #108113",
"cG c #0e7f13",
".w c #0e8011",
".i c #0e8113",
"bq c #0f8012",
"ef c #118114",
"dD c #0f8012",
"d8 c #0f8012",
"eu c #118114",
".7 c #108212",
"cm c #108011",
"dG c #108013",
"d7 c #0e8013",
".t c #108012",
".o c #108112",
"dL c #0f8212",
".L c #0f8212",
"cn c #0f8012",
"d3 c #0f8212",
"dW c #0f8012",
"dK c #0f8213",
"#j c #0f8012",
"#v c #108213",
"de c #0e8112",
"d6 c #108112",
"ec c #128115",
"dZ c #108012",
"aN c #108012",
"bz c #0f8012",
"dB c #0f8112",
"cU c #0f8012",
"d4 c #0f8013",
"dN c #0f8112",
"d5 c #0f8112",
".r c #0f8113",
"ah c #0f8012",
"#g c #0f8113",
"dm c #108112",
".9 c #0e8012",
".I c #0e8012",
"dr c #108012",
"a8 c #0f7f12",
"aL c #0f8012",
"em c #0f8012",
"dQ c #0f8013",
".c c #0f8113",
"eB c #0f8212",
"ej c #108014",
"er c #108012",
"bC c #0f8012",
"c# c #0f7f12",
"#I c #108212",
".V c #0f8112",
"#s c #0e8012",
"cK c #0f8113",
"bo c #0f8012",
".Z c #0f8112",
"#d c #0f8212",
"aB c #0f8213",
"eC c #0f8012",
"dI c #0f8212",
".S c #0f8012",
".Q c #0f8112",
"ei c #108113",
"aq c #0f8012",
".4 c #0f8113",
".l c #0f8213",
"du c #108112",
"#V c #108313",
"az c #0f7f12",
"dR c #0f8012",
"dg c #108113",
".C c #0f8213",
".8 c #0f8112",
"cf c #0e8011",
"cw c #0f8112",
"as c #0f8312",
"#F c #0f7f12",
"bH c #0f8012",
"#8 c #0f8312",
"be c #0f8012",
"#a c #0f8112",
"en c #108113",
"dV c #108213",
"ey c #0f8112",
".B c #0f8212",
"eq c #0f8213",
"ai c #0f8312",
"d# c #007500",
"#2 c #007601",
"#Y c #007703",
"cV c #017704",
"aQ c #027805",
"ch c #027806",
"dd c #037906",
"#O c #047907",
"ct c #047908",
"#X c #057a08",
"a3 c #057a09",
"#W c #067a09",
"b# c #067a0a",
"bk c #067b0a",
"b5 c #077b0a",
"#r c #087b0b",
"bS c #087b0c",
"c6 c #087c0b",
"aC c #087c0c",
"#S c #097c0c",
"#h c #0a7c0d",
"#q c #0b7d0e",
"cI c #0b7d0f",
"#B c #0c7d0e",
"#J c #0c7d0f",
"#i c #0c7e0f",
"aX c #0d7e10",
"cg c #0d7e11",
"#w c #0e7e11",
"#m c #0e7f11",
".n c #0f7f12",
".m c #0f8012",
".0 c #0f8112",
".G c #0f8212",
".H c #0f8213",
".y c #0f8312",
".s c #0f8313",
".R c #0f8413",
"dH c #0f8513",
"dv c #107f13",
"c5 c #108013",
".M c #108313",
".h c #108413",
".g c #108513",
"bP c #118013",
"bV c #118014",
"dl c #128015",
"b2 c #128115",
"#x c #138115",
"ba c #138116",
"dh c #148216",
"aR c #148217",
"ae c #158218",
"b6 c #158318",
"cF c #17831a",
"dw c #19841c",
"dx c #1a851d",
"#P c #1b851e",
"co c #1b861e",
"dc c #1e8720",
"aW c #1e8721",
"dp c #1f8721",
"cj c #218824",
"ap c #238a26",
"aO c #248a26",
"bW c #248a27",
"#p c #258a27",
"#K c #268b28",
"#9 c #268b29",
"bI c #288c2a",
"aS c #2d8f2f",
"#3 c #329234",
"bX c #359337",
"bj c #369438",
"ay c #379439",
"cc c #38953b",
"#o c #39963c",
"#n c #3a963d",
"c4 c #3c973e",
"#Z c #3e9840",
"a4 c #409941",
"at c #439b45",
"a0 c #449b46",
"bd c #459b47",
"bu c #459c47",
"bT c #479d49",
"a6 c #489d4a",
"cq c #4a9f4c",
"aj c #4b9f4d",
"ao c #4ea150",
"aD c #4fa151",
"bt c #50a252",
"aK c #52a254",
"cv c #53a355",
"bY c #53a456",
"ag c #54a355",
"cN c #55a456",
"dA c #55a457",
"cX c #57a559",
"bv c #58a659",
"bl c #59a65b",
"af c #5da85e",
"ac c #5fa960",
"cp c #5faa60",
"cr c #60aa62",
"b. c #61ab62",
"cB c #61ab63",
"b9 c #63ac64",
"bO c #65ad67",
"dy c #66ae68",
"a9 c #68ae69",
"b4 c #68ae6a",
"ad c #69af6a",
"cC c #69af6b",
"c3 c #6bb06d",
"by c #6cb16e",
"aT c #6db16e",
"#1 c #6eb270",
"cO c #71b372",
"#E c #72b474",
"cA c #76b677",
"bs c #78b779",
"ab c #7db97e",
"#5 c #81bc82",
"cu c #81bc83",
"bU c #82bc84",
"dz c #85be86",
"a2 c #86be87",
"cl c #87bf89",
"cW c #89c08a",
"bZ c #89c08b",
"c2 c #8bc18c",
"bh c #8dc28e",
"cz c #8dc28f",
"ca c #8fc390",
"#C c #90c491",
"bw c #92c593",
"aa c #93c594",
"b7 c #93c695",
"da c #97c898",
"ce c #97c899",
"c1 c #99c89a",
"c0 c #9ac99b",
"an c #9bc99b",
"cP c #9cca9d",
"#N c #9dcb9d",
"ax c #a0cca1",
"b1 c #a8d0a9",
"a# c #a8d1a9",
"#D c #a9d1aa",
"aF c #aad1aa",
"cZ c #acd3ad",
"aP c #add3ad",
"c9 c #add3ae",
"cY c #aed4ae",
"au c #afd4b0",
"#A c #b1d5b2",
"#R c #b2d6b2",
"cQ c #b2d6b3",
"a. c #b3d7b4",
"cJ c #b8d9b8",
"aG c #badbbb",
"cS c #c0ddc0",
"di c #c0ddc1",
"dj c #c2dfc2",
"av c #c5e0c6",
"cs c #c6e0c6",
"cD c #c8e2c9",
"dk c #cde4cd",
"#y c #cfe6d0",
"bE c #d3e7d1",
"aH c #d3e8d4",
"bD c #d4e8d4",
"cE c #d4e8d5",
"b0 c #d5e9d5",
"bN c #d8ead6",
"ck c #d9ebda",
"cd c #dbecdc",
"bL c #dcecdc",
"bb c #ddeddc",
"d. c #ddedde",
"aV c #dfeedf",
"cR c #e1eee0",
"aU c #e1efe1",
"bn c #e3f0e3",
"#Q c #e4f1e4",
"al c #e6f1e6",
"ci c #e7f2e7",
"dq c #e8f3e8",
"db c #e9f3e9",
"bM c #ebf4ea",
"do c #ebf4eb",
"#L c #ebf4ec",
"aE c #ecf5eb",
"am c #ecf5ec",
"bJ c #edf5ed",
"aJ c #eef6ee",
"bK c #eff7ef",
"aI c #f1f7f1",
"bx c #f1f8f1",
"a5 c #f2f8f2",
"aw c #f3f9f4",
"ak c #f4f9f4",
"#4 c #f5faf5",
"br c #f6faf5",
"#z c #f8fbf8",
"bm c #f9fcf8",
"cb c #f9fcf9",
"bi c #fafcfa",
"#0 c #fcfefc",
"a1 c #fdfefd",
"bc c #fefefe",
"b8 c #fefffe",
"#M c #ffffff",
"QtQtQtQtQtQtQtQtQtQtQtQtQtQtQtQtQtQtQtQtQtQtQtQtQtQtQtQtQtQtQtQtQtQtQtQtQtQtQtQtQtQtQt.#.aQtQtQtQtQtQtQtQtQtQtQtQtQtQtQtQtQtQtQt",
"QtQtQtQtQtQtQtQtQtQtQtQtQtQtQtQtQtQtQtQtQtQtQtQtQtQtQtQtQtQtQtQtQtQtQtQtQtQtQtQtQtQt.b.c.d.eQtQtQtQtQtQtQtQtQtQtQtQtQtQtQtQtQtQt",
"QtQtQtQtQtQtQtQtQtQtQtQtQtQtQtQtQtQtQtQtQtQtQtQtQtQtQtQtQtQtQtQtQtQtQtQtQtQtQtQtQtQt.f.g.h.i.jQtQtQtQtQtQtQtQtQtQtQtQtQtQtQtQtQt",
"QtQtQtQtQtQtQtQtQtQtQtQtQtQtQtQtQtQtQtQtQtQtQtQtQtQtQtQtQtQtQtQtQtQtQtQtQtQtQtQtQt.k.l.m.n.g.o.pQtQtQtQtQtQtQtQtQtQtQtQtQtQtQtQt",
"QtQtQtQtQtQtQtQtQtQtQtQtQtQtQtQtQtQtQtQtQtQtQtQtQtQtQtQtQtQtQtQtQtQtQtQtQtQtQtQt.q.r.s.n.n.n.g.t.uQtQtQtQtQtQtQtQtQtQtQtQtQtQtQt",
"QtQtQtQtQtQtQtQtQtQtQtQtQtQtQtQtQtQtQtQtQtQtQtQtQtQtQtQtQtQtQtQtQtQtQtQtQtQtQtQt.v.h.n.n.n.n.n.g.w.eQtQtQtQtQtQtQtQtQtQtQtQtQtQt",
"QtQtQtQtQtQtQtQtQtQtQtQtQtQtQtQtQtQtQtQtQtQtQtQtQtQtQtQtQtQtQtQtQtQtQtQtQtQtQt.x.y.n.n.n.n.n.n.n.h.zQtQtQtQtQtQtQtQtQtQtQtQtQtQt",
"QtQtQtQtQtQtQtQtQtQtQtQtQtQtQtQtQtQtQtQtQtQtQtQtQtQtQtQtQtQtQtQtQtQtQtQtQtQt.A.B.m.n.n.n.n.n.n.n.m.C.DQtQtQtQtQtQtQtQtQtQtQtQtQt",
"QtQtQtQtQtQtQtQtQtQtQtQtQtQtQtQtQtQtQtQtQtQtQtQtQtQtQtQtQtQtQtQtQtQtQtQt.E.F.G.m.n.n.n.n.n.n.n.n.n.H.I.JQtQtQtQtQtQtQtQtQtQtQtQt",
"QtQtQtQtQtQtQtQtQtQtQtQtQtQtQtQtQtQtQtQtQtQtQtQtQtQtQtQtQtQtQtQtQtQtQt.K.L.M.m.n.n.n.n.n.n.n.n.n.n.n.g.NQtQtQtQtQtQtQtQtQtQtQtQt",
"QtQtQtQtQtQtQtQtQtQtQtQtQtQtQtQtQtQtQtQtQtQtQtQtQtQtQtQtQtQtQtQtQt.O.P.Q.R.n.n.n.n.n.n.n.n.n.n.n.n.n.m.S.#QtQtQtQtQtQtQtQtQtQtQt",
"QtQtQtQtQtQtQtQtQtQtQtQtQtQtQtQtQtQtQtQtQtQtQtQtQtQtQtQtQtQtQt.T.U.V.h.m.n.n.n.n.n.n.n.n.n.n.n.n.n.n.n.h.WQtQtQtQtQtQtQtQtQtQtQt",
"QtQtQtQtQtQtQtQtQtQtQtQtQtQtQtQtQtQtQtQtQtQtQtQtQtQtQtQtQt.X.Y.Z.h.0.n.n.n.n.n.n.n.n.n.n.n.n.n.n.n.n.n.m.S.1QtQtQtQtQtQtQtQtQtQt",
"QtQtQtQtQtQtQtQtQtQtQtQtQtQtQtQtQtQtQtQtQtQtQtQtQtQtQt.2.3.4.h.m.n.n.n.n.n.n.n.n.n.n.n.n.n.n.n.n.n.n.n.n.h.5QtQtQtQtQtQtQtQtQtQt",
"QtQtQtQtQtQtQtQtQtQtQtQtQtQtQtQtQtQtQtQtQtQtQtQtQt.6.7.8.h.m.n.n.n.n.n.n.n.n.n.n.n.n.n.n.n.n.n.n.n.n.n.n.G.9#.QtQtQtQtQtQtQtQtQt",
"QtQtQtQtQtQtQtQtQtQtQtQtQtQtQtQtQtQtQtQtQtQtQt.###.8.h.m.n.n.n.n.n.n.n.n.n.n.n.n.n.n.n.n.n.n.n.n.n.n.n.n.n#a#bQtQtQtQtQtQtQtQtQt",
"QtQtQtQtQtQtQtQtQtQtQtQtQtQtQtQtQtQtQtQtQt.q#c#d.h.m.n.n.n.n.n.n.n.n.n.n.n.n.n.n.n.n.n.n.n.n.n.n.n.n.n.n.n.h#eQtQtQtQtQtQtQtQtQt",
"QtQtQtQtQtQtQtQtQtQtQtQtQtQtQtQtQtQtQtQt#f#g.h.m.n.n.n.n.n#h#h#i.n.n.n.n.n.n.n.n.n.n.n.n.n.n.n.n.n.n.n.n.n.s#j.aQtQtQtQtQtQtQtQt",
"QtQtQtQtQtQtQtQtQtQtQtQtQtQtQtQtQtQt#k#l.8.G.n.n.n.n.n.n#m#n#o#p.n.n#q#r#r.n.n.n.n.n.n.n.n.n.n.n.n.n.n.n.n.0#s#tQtQtQtQtQtQtQtQt",
"QtQtQtQtQtQtQtQtQtQtQtQtQtQtQtQtQt#u#v.h.m.n.n.n.n.n.n#w#x#y#z#A#B#m#C#D#E#m.n.n.n.n.n.n.n.n.n.n.n.n.n.n.n.n#F#GQtQtQtQtQtQtQtQt",
"QtQtQtQtQtQtQtQtQtQtQtQtQtQtQtQt#H#I.h.n.n.n.n.n.n.n.n#J#K#L#M#N#O#P#Q#M#R#S.n.n.n.n.n.n.n.n.n.n.n.n.n.n.n.n.G#TQtQtQtQtQtQtQtQt",
"QtQtQtQtQtQtQtQtQtQtQtQtQtQtQt#U#V.G.n.n.n.n#m#J#r#W#X#Y#Z#0#M#1#2#3#4#M#5#X.n.n.n.n.n.n.n.n.n.n.n.n.n.n.n.n.y#6QtQtQtQtQtQtQtQt",
"QtQtQtQtQtQtQtQtQtQtQtQtQtQt#7#8.0.n.n.n.n#J#9a.a#aaabacaa#M#Madaeaf#M#Mag#Y#J.n.n.n.n.n.n.n.n.n.n.n.n.n.n.n.0ahQtQtQtQtQtQtQtQt",
"QtQtQtQtQtQtQtQtQtQtQtQtQt#7ai.m.n.n.n.n.n#raj#M#M#M#M#M#M#M#Makalam#M#Manaoap#r#h.n.n.n.n.n.n.n.n.n.n.n.n.n.naqQtQtQtQtQtQtQtQt",
"QtQtQtQtQtQtQtQtQtQtQtQtaras.m.n.n.n.n.n.n#hatauavaw#M#M#M#M#M#M#M#M#M#M#M#Malaxay#r.n.n.n.n.n.n.n.n.n.n.n.n.nazQtQtQtQtQtQtQtQt",
"QtQtQtQtQtQtQtQtQtQtQtaAaB.0.n.n.n.n.n.n.n.n#JaC#qaDak#M#M#MaEaFaGaHaI#M#M#M#M#MaJaK#r.n.n.n.n.n.n.n.n.n.n.n.maLQtQtQtQtQtQtQtQt",
"QtQtQtQtQtQtQtQtQtQtaMaN.M.n.n.n.n.n.n.n.n.n.n.n#qaOam#M#M#MaPaQ#qaRaSaTaU#M#M#M#MaVaWaX.n.n.n.n.n.n.n.n.n.n.GaYQtQtQtQtQtQtQtQt",
"QtQtQtQtQtQtQtQtQtQtaZ.h.n.n.n.n.n.n.n.n.n.n.n.n#Sa0a1#M#M#Ma2a3.n#w#qaQa4a5#M#M#M#Ma6#r.n.n.n.n.n.n.n.n.n.n.ya7QtQtQtQtQtQtQtQt",
"QtQtQtQtQtQtQtQtQt.ua8.G.n.n.n.n.n.n.n.n.n.n.n.n#Wa9#M#M#M#Mb.b#.n.n.naXbabb#M#M#Mbcbd#S.n.n.n.n.n.n.n.n.n.nbebfQtQtQtQtQtQtQtQt",
"QtQtQtQtQtQtQtQtQtbg.M.n.n.n.n.n.n.n.n.n.n.n.n.na3bh#M#M#MbibjaQ#S#SbkaQblbm#M#M#MbnaWaX.n.n.n.n.n.n.n.n.n.mbobpQtQtQtQtQtQtQtQt",
"QtQtQtQtQtQtQtQtQtbq.h.n.n.n.n.n.n.n.n.n.n.n.n.n#h#A#M#M#Mbrbsbtbua0bvbwbx#M#M#Ma1by#r.n.n.n.n.n.n.n.n.n.n.GbzbAQtQtQtQtQtQtQtQt",
"QtQtQtQtQtQtQtQtbBbC.0.n.n.n.n.n.n.n.n.n.n.n.n#waebD#M#M#M#M#M#M#Mbc#M#M#M#M#MbEaD#S.n.n.n.n.n.n.n.n.n.n.n.hbFQtQtQtQtQtQtQtQtQt",
"QtQtQtQtQtQtQtQtbGbH.n.n.n.n.n.n.n.n.n.n.n.n.n#JbIbJ#M#M#MbKbLbM#z#M#M#M#M#M#MbNbObPaX.n.n.n.n.n.n.n.n.n.n.GbQQtQtQtQtQtQtQtQtQt",
"QtQtQtQtQtQtQtQtbR.s.n.n.n.n.n.n.n.n.n.n.n.n.nbSbTa1#M#M#MbUbVbWbXbYbZb0#M#M#M#M#Mb1b2#w.n.n.n.n.n.n.n.n.0bC.bQtQtQtQtQtQtQtQtQt",
"QtQtQtQtQtQtQtQtb3.s.n.n.n.n.n.n.n.n.n.n.n.n.n#Wb4#M#M#M#Mbl#X#J#hb5#Ob6b7b8#M#M#M#Mb9b5.n.n.n.n.n.n.n.n.hc.QtQtQtQtQtQtQtQtQtQt",
"QtQtQtQtQtQtQtQtc#.m.n.n.n.n.n.n.n.n.n.n.n.n.na3ca#M#M#Mcbcc#h.n.n.n.n#qb6cd#M#M#M#Mce#W.n.n.n.n.n.n.n.m.CbGQtQtQtQtQtQtQtQtQtQt",
"QtQtQtQtQtQtQtQtcf.n.n.n.n.n.n.n.n.n.n.ncgb5#rch#A#M#M#Mcicj#i.n.n.n.n#Jback#M#M#M#Mcla3.n.n.n.n.n.n.n.Rcm.aQtQtQtQtQtQtQtQtQtQt",
"QtQtQtQtQtQtQtQtcn.G.n.n.n.n.n.n.n.n.naXcocpcqcram#M#M#Mcs#X#O#W#W#WctaXcua1#M#M#M#Mcv#r.n.n.n.n.n.n.mcwcxQtQtQtQtQtQtQtQtQtQtQt",
"QtQtQtQtQtQtQtQtcy.s.n.n.n.n.n.n.n.n.n#Wcr#M#M#M#M#M#M#M#QczcAadcBcCclcD#M#M#M#M#McEcFaX.n.n.n.n.n.n.hcGQtQtQtQtQtQtQtQtQtQtQtQt",
"QtQtQtQtQtQtQtQtcH.0.n.n.n.n.n.n.n.n#mcIcJ#M#M#M#M#M#M#M#M#M#M#M#M#M#M#M#M#M#M#Ma5aD#r.n.n.n.n.n.n.0cKcLQtQtQtQtQtQtQtQtQtQtQtQt",
"QtQtQtQtQtQtQtQtcMaq.m.n.n.n.n.n.n.n#mb2cNcOclcPcQcR#M#Ma1#M#M#M#M#M#M#M#M#M#zcSbu#r.n.n.n.n.n.n.n.HcTQtQtQtQtQtQtQtQtQtQtQtQtQt",
"QtQtQtQtQtQtQtQt.ecU.G.n.n.n.n.n.n.n.n.n#r#W#XbkcVcW#MakcXbucY#M#0cZc0c1c2c3c4c5c6.n.n.n.n.n.n.n.hc7.aQtQtQtQtQtQtQtQtQtQtQtQtQt",
"QtQtQtQtQtQtQtQtQtc8.h.n.n.n.n.n.n.n.n.n.n.n.n.nc6c9#Md.aed#da#Mdbdcdd#W#X#W#h#w.n.n.n.n.n.n.n.hdebBQtQtQtQtQtQtQtQtQtQtQtQtQtQt",
"QtQtQtQtQtQtQtQtQtdfdg.m.n.n.n.n.n.n.n.n.n.n.n#wdhbD#Mdi#iaXdj#Mdkdl#w.n.n.n.n.n.n.n.n.n.n.n.sdmdnQtQtQtQtQtQtQtQtQtQtQtQtQtQtQt",
"QtQtQtQtQtQtQtQtQtQtbq.h.n.n.n.n.n.n.n.n.n.n.naXcjcDdoaa#Odpdq#Mau#r.n.n.n.n.n.n.n.n.n.n.n.RdrdsQtQtQtQtQtQtQtQtQtQtQtQtQtQtQtQt",
"QtQtQtQtQtQtQtQtQtQtdtdu.m.n.n.n.n.n.n.n.n.n.n.ndvdw#KaW#idxdydzdA#h.n.n.n.n.n.n.n.n.n.n.hdB.TQtQtQtQtQtQtQtQtQtQtQtQtQtQtQtQtQt",
"QtQtQtQtQtQtQtQtQtQtQtdC.g.n.n.n.n.n.n.n.n.n.n.n.naX#JaX.n#wb##X#h.n.n.n.n.n.n.n.n.n.0.RdDdEQtQtQtQtQtQtQtQtQtQtQtQtQtQtQtQtQtQt",
"QtQtQtQtQtQtQtQtQtQtQtdFdGdH.n.n.n.n.n.n.n.n.n.n.n.n.n.n.n.n.n.n.n.n.n.n.n.n.n.n.n.hdIdJbAQtQtQtQtQtQtQtQtQtQtQtQtQtQtQtQtQtQtQt",
"QtQtQtQtQtQtQtQtQtQtQtQtdEdK.g.n.n.n.n.n.n.n.n.n.n.n.n.n.n.n.n.n.n.n.n.n.n.n.n.G.GdLdMQtQtQtQtQtQtQtQtQtQtQtQtQtQtQtQtQtQtQtQtQt",
"QtQtQtQtQtQtQtQtQtQtQtQtQt.p##.8.n.n.n.n.n.n.n.n.n.n.n.n.n.n.n.n.n.n.n.n.m.s.GdNdObAQtQtQtQtQtQtQtQtQtQtQtQtQtQtQtQtQtQtQtQtQtQt",
"QtQtQtQtQtQtQtQtQtQtQtQtQtQtdPdQ.0.n.n.n.n.n.n.n.n.n.n.n.n.n.n.n.n.m.s.hdRdLdSdTQtQtQtQtQtQtQtQtQtQtQtQtQtQtQtQtQtQtQtQtQtQtQtQt",
"QtQtQtQtQtQtQtQtQtQtQtQtQtQtdUdV.n.n.n.n.H.h.h.s.G.G.G.s.M.h.h.h.mbodW.AdXQtQtQtQtQtQtQtQtQtQtQtQtQtQtQtQtQtQtQtQtQtQtQtQtQtQtQt",
"QtQtQtQtQtQtQtQtQtQtQtQtQtdYdZ.y.n.n.nc5d0d1d2d3d4d5bzd6d7d8d9e.e#eaQtQtQtQtQtQtQtQtQtQtQtQtQtQtQtQtQtQtQtQtQtQtQtQtQtQtQtQtQtQt",
"QtQtQtQtQtQtQtQtQtQtQtQtQteb#a.n.n.n.GecedQtQtQt.aeeQtQtQtQtQtQtQtQtQtQtQtQtQtQtQtQtQtQtQtQtQtQtQtQtQtQtQtQtQtQtQtQtQtQtQtQtQtQt",
"QtQtQtQtQtQtQtQtQtQtQtQtQtef.h.n.n.n.MegQtQtQtQtQtQtQtQtQtQtQtQtQtQtQtQtQtQtQtQtQtQtQtQtQtQtQtQtQtQtQtQtQtQtQtQtQtQtQtQtQtQtQtQt",
"QtQtQtQtQtQtQtQtQtQtQtQtehei.m.n.n.0ejekQtQtQtQtQtQtQtQtQtQtQtQtQtQtQtQtQtQtQtQtQtQtQtQtQtQtQtQtQtQtQtQtQtQtQtQtQtQtQtQtQtQtQtQt",
"QtQtQtQtQtQtQtQtQtQtQtQt.P.h.n.n.n.helQtQtQtQtQtQtQtQtQtQtQtQtQtQtQtQtQtQtQtQtQtQtQtQtQtQtQtQtQtQtQtQtQtQtQtQtQtQtQtQtQtQtQtQtQt",
"QtQtQtQtQtQtQtQtQtQtQt#kem.0.n.n.neneoQtQtQtQtQtQtQtQtQtQtQtQtQtQtQtQtQtQtQtQtQtQtQtQtQtQtQtQtQtQtQtQtQtQtQtQtQtQtQtQtQtQtQtQtQt",
"QtQtQtQtQtQtQtQtQtQtQtepeq.n.n.n.0eresQtQtQtQtQtQtQtQtQtQtQtQtQtQtQtQtQtQtQtQtQtQtQtQtQtQtQtQtQtQtQtQtQtQtQtQtQtQtQtQtQtQtQtQtQt",
"QtQtQtQtQtQtQtQtQtQtQtet.h.n.n.n.ReuQtQtQtQtQtQtQtQtQtQtQtQtQtQtQtQtQtQtQtQtQtQtQtQtQtQtQtQtQtQtQtQtQtQtQtQtQtQtQtQtQtQtQtQtQtQt",
"QtQtQtQtQtQtQtQtQtQtevem.G.n.n.n.hewQtQtQtQtQtQtQtQtQtQtQtQtQtQtQtQtQtQtQtQtQtQtQtQtQtQtQtQtQtQtQtQtQtQtQtQtQtQtQtQtQtQtQtQtQtQt",
"QtQtQtQtQtQtQtQtQtQtexd2.g.0.n.neyezQtQtQtQtQtQtQtQtQtQtQtQtQtQtQtQtQtQtQtQtQtQtQtQtQtQtQtQtQtQtQtQtQtQtQtQtQtQtQtQtQtQtQtQtQtQt",
"QtQtQtQtQtQtQtQtQtQtQteveAeB.0.geCeDQtQtQtQtQtQtQtQtQtQtQtQtQtQtQtQtQtQtQtQtQtQtQtQtQtQtQtQtQtQtQtQtQtQtQtQtQtQtQtQtQtQtQtQtQtQt",
"QtQtQtQtQtQtQtQtQtQtQtQtQt.beEeFeG.aQtQtQtQtQtQtQtQtQtQtQtQtQtQtQtQtQtQtQtQtQtQtQtQtQtQtQtQtQtQtQtQtQtQtQtQtQtQtQtQtQtQtQtQtQtQt"};
