/* XPM */
static char *bitcoin64[] = {
/* columns rows colors chars-per-pixel */
"64 64 123 2 ",
"   c None",
".  c #16843E",
"X  c #1D9148",
"o  c #1D9248",
"O  c #1E9249",
"+  c #249049",
"@  c #259D4F",
"#  c #249F50",
"$  c #299F51",
"%  c #339D55",
"&  c #27A151",
"*  c #2DA358",
"=  c #2EA459",
"-  c #30A255",
";  c #30A857",
":  c #31A859",
">  c #3EA95B",
",  c #3AAE5D",
"<  c #3AAF5F",
"1  c #3CB066",
"2  c #42AB5E",
"3  c #44AA62",
"4  c #43B464",
"5  c #45B564",
"6  c #4BB86A",
"7  c #4CB869",
"8  c #51B169",
"9  c #53B468",
"0  c #57B769",
"q  c #55B46C",
"w  c #55BB6E",
"e  c #4AB873",
"r  c #4CB974",
"t  c #55BC70",
"y  c #5DBB72",
"u  c #5DBE72",
"i  c #5CBE73",
"p  c #5EBE75",
"a  c #5FBF76",
"s  c #54BC7C",
"d  c #55BC7D",
"f  c #56BD7D",
"g  c #55BD7F",
"h  c #57BD7E",
"j  c #5ABE7B",
"k  c #5BBE7B",
"l  c #5EBE78",
"z  c #5CBE7A",
"x  c #59BD7D",
"c  c #62BD6C",
"v  c #60BD70",
"b  c #64BF70",
"n  c #60BF75",
"m  c #63BF74",
"M  c #62BF75",
"N  c #61BF76",
"B  c #60BF77",
"V  c #62BF76",
"C  c #7FC55E",
"Z  c #6FC26A",
"A  c #6FC26B",
"S  c #6BC16E",
"D  c #6AC16F",
"F  c #6DC16C",
"G  c #6CC16D",
"H  c #6EC16C",
"J  c #6EC26C",
"K  c #73C367",
"L  c #76C365",
"P  c #74C366",
"I  c #74C367",
"U  c #7BC461",
"Y  c #79C462",
"T  c #79C463",
"R  c #7AC462",
"E  c #7DC560",
"W  c #78C464",
"Q  c #71C269",
"!  c #73C368",
"~  c #67C071",
"^  c #65C073",
"/  c #67C072",
"(  c #63C075",
")  c #62C076",
"_  c #64C075",
"`  c #68C070",
"'  c #69C170",
"]  c #69C171",
"[  c #68C172",
"{  c #9CCB47",
"}  c #97CA4B",
"|  c #93C94E",
" . c #92C94F",
".. c #95C94C",
"X. c #94C94E",
"o. c #99CA49",
"O. c #9ACA48",
"+. c #87C757",
"@. c #8BC754",
"#. c #8AC755",
"$. c #8BC755",
"%. c #89C756",
"&. c #88C757",
"*. c #8CC853",
"=. c #8DC853",
"-. c #8EC852",
";. c #82C65B",
":. c #85C659",
">. c #86C658",
",. c #86C659",
"<. c #84C65A",
"1. c #80C55D",
"2. c #81C55D",
"3. c #90C850",
"4. c #4EBB85",
"5. c #4DBB86",
"6. c #49BA89",
"7. c #4BBB88",
"8. c #48BA8A",
"9. c #50BC83",
"0. c #52BC82",
"q. c #54BC81",
"w. c #50BC84",
/* pixels */
"                                            { {                   { { {                                                         ",
"                                          O.O.O.O.              O.O.O.O.                                                        ",
"                                          o.o.o.o.              o.o.o.o.                                                        ",
"                                          } } } }               } } } }                                                         ",
"                                          ........              ........                                                        ",
"                                          X.X.X.|               X.| | X.                                                        ",
"                                           . . . .               . . . .                                                        ",
"                                          3.3.3.3.              3.3.3.3.                                                        ",
"                                          -.-.-.-.              -.-.-.-.                                                        ",
"                                *.*.*.*.*.=.=.=.=.*.*.*.*.*.*.*.=.=.=.=.*.*.*.*.*.                                              ",
"                              $.@.@.@.@.@.$.$.$.$.@.@.@.@.@.@.@.$.$.$.$.@.@.@.@.@.@.$.$.$.#.                                    ",
"                              %.%.%.%.%.%.%.%.%.%.%.%.%.%.%.%.%.%.%.%.%.%.%.%.%.%.%.%.%.%.%.%.                                  ",
"                              &.+.+.+.+.+.+.+.+.+.+.+.+.+.+.+.+.+.+.+.+.+.+.+.+.+.+.+.+.+.+.+.+.+.                              ",
"                                          ,.,.,.,.                                >.>.,.,.,.,.,.,.:.                            ",
"                                          <.<.<.<.                                        <.<.<.<.<.                            ",
"                                          ;.;.;.;.                                          ;.;.;.;.;.                          ",
"                                          2.2.2.1.                                            2.1.2.1.                          ",
"                                          C C C C                                             C C C C C                         ",
"                                          E E E E                                               E E E E                         ",
"                                          U U U U                                               U U U U                         ",
"                                          R R R R T T Y Y R R R Y Y T                           R R R R                         ",
"                                          W W W W W W W W W W W W W W W W                       W W W W                         ",
"                                      L L L L L L L L L L L L L L L L L L L L                   L L L L                         ",
"                              I I I P P P P P P P P P P P P I I I I P P I I P I                 I P P P                         ",
"                ! ! ! ! ! ! ! ! ! ! ! ! ! ! ! ! ! ! ! ! ! ! ! ! K         ! ! ! !               ! ! ! !                         ",
"                  Q Q Q Q Q Q Q Q Q Q Q Q Q Q Q Q Q Q Q Q Q                                   Q Q Q Q Q                         ",
"                  Z A A A A A A A A A A A A A A A A A A A A A A A A A A                     A A A A A                           ",
"                    J F F J J J J J J J J J J J J J J J J J J J J J J J J F F F           F H J F J                             ",
"                      G G G G G G G G G G G G G G G G G G G G G G G G G G G G G G S   S G G G G G G                             ",
"                        D D D D D D D D D D D D D D D D D D D D D D D D D D D D D D D D D D D D D                               ",
"                          ' ` ` ` ` ` ` ` ` ` ` ` ` ` ` ` ` ` ` ` ` ` ` ` ` ` ` ` ` ` ` ] ` c                                   ",
"                              ~ / / / / / / / / / / / / / / / / / / / / / / / / / [ [ b 0 > $                                   ",
"                                ^ ^ ^ ^ ^ ^ ^ ^ ^ ^ ^ ^ ^ ^ ^ ^ ^ ^ ^ ^ ^ ^ ^ ^ v 9 2 - @ & ; , 5                               ",
"                                    m m ( _ ( m m m m m m m m m m m m m m m m         # : < 4 7 w u                             ",
"                                        q 8 y V ) N N N N N N N N N N V M                 6 t i n N N                           ",
"                                          . + % 3 p B B B B B B B                           a B B B B                           ",
"                                          O o X O                                             l l l l l                         ",
"                                          * * * =                                               z z z z                         ",
"                                          1 1 1 1                                               k k k k j                       ",
"                                          r e e e                                                 x x x x                       ",
"                                          h f d s                                                 h h h h                       ",
"                                          g g g g                                                 g g g g                       ",
"                                          q.q.q.q.                                                q.q.q.q.                      ",
"                                          0.0.0.0.                                                0.0.0.0.                      ",
"                                          w.w.w.9.                                                w.9.w.9.                      ",
"                                          4.4.4.4.                                              4.4.4.4.4.                      ",
"                                          5.5.5.5.                                              5.5.5.5.                        ",
"                                          7.7.7.7.                                            7.7.7.7.7.                        ",
"                                          6.6.6.6.                                          6.6.6.6.6.6.                        ",
"                                          8.8.8.8.                                        8.8.8.8.8.8.                          ",
"                                          8.8.8.8.                                    8.8.8.8.8.8.8.                            ",
"                                8.8.8.8.8.8.8.8.8.8.8.8.8.8.8.8.8.8.8.8.8.8.8.8.8.8.8.8.8.8.8.8.8.                              ",
"                              8.8.8.8.8.8.8.8.8.8.8.8.8.8.8.8.8.8.8.8.8.8.8.8.8.8.8.8.8.8.8.8.8.                                ",
"                              8.8.8.8.8.8.8.8.8.8.8.8.8.8.8.8.8.8.8.8.8.8.8.8.8.8.8.8.8.8.8.                                    ",
"                                8.8.8.8.8.8.8.8.8.8.8.8.8.8.8.8.8.8.8.8.8.8.8.8.8.8.8.8.                                        ",
"                                          8.8.8.8.              8.8.8.8.                                                        ",
"                                          8.8.8.8.              8.8.8.8.                                                        ",
"                                          8.8.8.8.              8.8.8.8.                                                        ",
"                                          8.8.8.8.              8.8.8.8.                                                        ",
"                                          8.8.8.8.              8.8.8.8.                                                        ",
"                                          8.8.8.8.              8.8.8.8.                                                        ",
"                                          8.8.8.8.              8.8.8.8.                                                        ",
"                                          8.8.8.8.              8.8.8.8.                                                        ",
"                                            8.8.                  8.8.8.                                                        "
};
