/* XPM */
static char *dummy[]={
"32 32 222 2",
"Qt c None",
".I c #000000",
".n c #008000",
".z c #00aa00",
"#I c #008000",
".3 c #008000",
"#b c #009224",
".a c #008020",
".i c #1c711c",
"bl c #1c8e1c",
"aM c #1a801a",
".y c #177417",
".b c #158015",
"a4 c #0d790d",
"bu c #0c7918",
"au c #0c8017",
"bz c #148014",
"aV c #137b13",
".S c #128012",
"br c #0f8316",
"a1 c #0e800e",
"bk c #0e8015",
"bv c #0e8315",
"#4 c #0d8014",
".# c #0d8013",
".J c #0c8313",
"#T c #108210",
"bg c #108010",
"bf c #148214",
"bj c #0e8013",
"aD c #0d8212",
".t c #108214",
"bi c #108014",
"bh c #0f8013",
".2 c #0f8012",
"bq c #118315",
".A c #0e8111",
".F c #118114",
".s c #0d8010",
"bB c #108014",
"bc c #108314",
"#S c #108113",
"#x c #107e13",
"bm c #108313",
"a7 c #0f8112",
".E c #0e8114",
"#5 c #108012",
".T c #0f8012",
".j c #0f7e12",
"bA c #128514",
"aW c #0f8113",
"a8 c #0e8013",
"aC c #0e8013",
"av c #108112",
".o c #108212",
"ak c #108012",
"#a c #0f7e13",
".e c #0f8012",
"#H c #0e7f12",
".m c #108011",
"#m c #0f7f13",
"bb c #108112",
"bn c #128013",
"#c c #0f8012",
"a3 c #0f8212",
".d c #0f8113",
".K c #108213",
".h c #0e8013",
"a5 c #0e8113",
"a2 c #0f7f12",
"bo c #0f8012",
"aL c #0f8012",
".u c #0f8112",
".H c #0f8012",
".G c #108212",
"by c #108012",
"ac c #0f8012",
"#J c #0f7f12",
"ab c #0f8012",
"a6 c #0f8113",
"a0 c #0f8112",
".x c #0f7f12",
"aU c #108112",
".c c #0f8012",
"bd c #0f7f12",
"ba c #0f8012",
"al c #0f8012",
"#l c #0f7f11",
"bw c #0f8012",
"at c #108012",
"bt c #0f8013",
".U c #0f8212",
"#w c #0f7f12",
"be c #108012",
".R c #0f8012",
"a9 c #0f7f12",
"b# c #0f8012",
"bs c #108013",
"#3 c #0f7f12",
".p c #0f8212",
"#U c #0f8012",
"b. c #0f8012",
".B c #0f8012",
".k c #0f8212",
"aE c #0f8112",
".r c #0f8212",
".5 c #007500",
"#O c #007601",
"aT c #007702",
"aN c #007703",
"ae c #017804",
"ah c #047907",
"#6 c #057a08",
".N c #067a09",
"## c #077b0a",
"aw c #087b0b",
"#k c #087c0c",
".P c #097c0c",
".W c #0a7c0d",
".M c #0b7d0e",
"ad c #0c7d0f",
"am c #0c7e0f",
".Q c #0d7e10",
".4 c #0e7e11",
".O c #0e7f11",
".l c #0f7f12",
".q c #0f8012",
".L c #0f8112",
".w c #0f8212",
"#y c #0f8213",
".v c #0f8312",
".C c #0f8313",
".V c #0f8412",
"aq c #108013",
"bp c #108213",
".D c #108313",
".f c #108413",
".g c #108513",
"bx c #108813",
"#C c #138116",
".Z c #148117",
"aQ c #17831a",
"#z c #18841b",
"aY c #19841c",
"#G c #19851c",
"#R c #1b861e",
".8 c #1c861e",
".1 c #218924",
"an c #278c2a",
"aF c #2f9031",
"as c #2f9032",
"#N c #329234",
"aj c #359338",
"aX c #369439",
"#K c #3b963d",
"#D c #3e9840",
".X c #3f9841",
"aG c #419a43",
".0 c #439b45",
"#n c #449b46",
"#v c #4b9f4d",
"#. c #4da04f",
"#j c #4fa151",
"#V c #5ca85e",
"#2 c #5ea960",
"aO c #5faa61",
"#B c #60aa62",
"aK c #6aaf6c",
".Y c #6db16f",
"aa c #74b576",
"aH c #7bb97d",
"aS c #7dba7f",
"ap c #80bb82",
"#7 c #83bd85",
"#8 c #86be87",
"#h c #8dc28e",
".6 c #8fc390",
"aZ c #96c797",
"#o c #96c798",
"#P c #9cca9d",
"aI c #9fcc9f",
"aB c #a0cca1",
"#e c #a2cea3",
"#Y c #a3cea4",
"ax c #a4cea4",
"ag c #a4cea5",
"#9 c #a4cfa6",
"ai c #a7d0a8",
"af c #a9d1aa",
"aJ c #badabb",
"#X c #bbdbbc",
"#Z c #bddcbd",
"az c #bedcbe",
"ay c #c0dec1",
"#d c #c6e1c7",
"#u c #c8e2c9",
"#E c #cce4cd",
".7 c #cfe5cf",
"#g c #d4e8d4",
"ao c #d8ead9",
"a. c #daebda",
"#f c #ddeddd",
"aR c #deedde",
"#F c #e0eee0",
"aA c #e2efe2",
"#Q c #e6f1e6",
"#A c #e9f3e9",
"#r c #eaf4ea",
"#q c #ecf5ec",
"#1 c #eef5ed",
"a# c #eff6ee",
"aP c #f0f7ef",
".9 c #f0f7f0",
"ar c #f7fbf7",
"#i c #f8fbf8",
"#0 c #f9fcf9",
"#t c #fafcfa",
"#M c #fbfdfb",
"#L c #fcfdfc",
"#s c #fcfefc",
"#W c #fefefe",
"#p c #ffffff",
"QtQtQtQtQtQtQtQtQtQtQtQtQtQtQtQtQtQtQtQtQt.#.aQtQtQtQtQtQtQtQtQt",
"QtQtQtQtQtQtQtQtQtQtQtQtQtQtQtQtQtQtQtQt.b.c.d.bQtQtQtQtQtQtQtQt",
"QtQtQtQtQtQtQtQtQtQtQtQtQtQtQtQtQtQtQtQt.e.f.g.h.iQtQtQtQtQtQtQt",
"QtQtQtQtQtQtQtQtQtQtQtQtQtQtQtQtQtQtQt.j.k.l.l.g.mQtQtQtQtQtQtQt",
"QtQtQtQtQtQtQtQtQtQtQtQtQtQtQtQtQt.n.o.p.q.l.l.l.r.sQtQtQtQtQtQt",
"QtQtQtQtQtQtQtQtQtQtQtQtQtQtQtQt.t.u.v.q.l.l.l.l.w.x.yQtQtQtQtQt",
"QtQtQtQtQtQtQtQtQtQtQtQtQt.z.A.u.B.C.l.l.l.l.l.l.l.D.EQtQtQtQtQt",
"QtQtQtQtQtQtQtQtQtQtQtQt.F.G.w.C.l.l.l.l.l.l.l.l.l.D.H.IQtQtQtQt",
"QtQtQtQtQtQtQtQtQtQt.J.K.L.D.M.N.O.P.Q.l.l.l.l.l.l.q.R.SQtQtQtQt",
"QtQtQtQtQtQtQtQtQt.T.U.V.l.W.X.Y.Z.0.1.Q.l.l.l.l.l.l.w.2QtQtQtQt",
"QtQtQtQtQtQtQt.3.m.D.L.4.M.5.6.7.8.9#.##.l.l.l.l.l.l.f#aQtQtQtQt",
"QtQtQtQtQtQt#b#c.g.l##.Y#d#e#f#g#h#i#j.Q#k.l.l.l.l.l.q#lQtQtQtQt",
"QtQtQtQtQtQt#m.g.l.l.M#n#o#p#p#q#r#s#t#u#v.W.l.l.l.l.q#wQtQtQtQt",
"QtQtQtQtQt#x#y.l.l.l.l###z#A#p#B#C#D#E#p#F#G.Q.l.l.l.D#HQtQtQtQt",
"QtQtQtQt#I#J.C.l.l.l.l.W#K#L#M#N#O.5#P#p#Q#R.Q.l.l.l.C#SQtQtQtQt",
"QtQtQtQt#T#U.l.l.l.l.l.N#V#p#W#X#Y#Z#0#1#2.P.l.l.l.q#3#4QtQtQtQt",
"QtQtQtQt#5.f.l.l.l.l.l#6#7#p#f#8#9a.#pa#aa.Q.l.l.l.wab#IQtQtQtQt",
"QtQtQtQtac.L.l.l.l.ladaeaf#pag.5ah.Qai#p#Waj.W.l.l.fakQtQtQtQtQt",
"QtQtQtQtal.q.l.l.laman.0ao#papae.Paqaf#paras.M.l.LatauQtQtQtQtQt",
"QtQtQtQtav.f.l.l.lawax#p#p#p#rayazaA#p#paB.M.l.l.faCQtQtQtQtQtQt",
"QtQtQtQtaDaE.l.l.l.laFaGaH#0aI#q#raJaiaK.Z.Q.l.faL.3QtQtQtQtQtQt",
"QtQtQtQtaM.c.w.l.l.l.MaNaOaPaQaRaSaT##.N.4.l.faUaVQtQtQtQtQtQtQt",
"QtQtQtQtQtaW.g.l.l.l.l.MaX#2aYaZaG.P.l.l.l.ga0a1QtQtQtQtQtQtQtQt",
"QtQtQtQtQt.3a2.g.l.l.l.l.M##.O##ad.l.l.w#ya3auQtQtQtQtQtQtQtQtQt",
"QtQtQtQtQtQta4a5.L.l.q.l.l.l.l.q.L.f.wa6a7QtQtQtQtQtQtQtQtQtQtQt",
"QtQtQtQtQtQtQta8.f.qa9b..L.L.lb#babbbc.aQtQtQtQtQtQtQtQtQtQtQtQt",
"QtQtQtQtQtQtaMbd.vbebfbgbhbibjbkblQtQtQtQtQtQtQtQtQtQtQtQtQtQtQt",
"QtQtQtQtQtQtbm.D.fbnQtQtQtQtQtQtQtQtQtQtQtQtQtQtQtQtQtQtQtQtQtQt",
"QtQtQtQtQtQtbo.fbpbqQtQtQtQtQtQtQtQtQtQtQtQtQtQtQtQtQtQtQtQtQtQt",
"QtQtQtQtQtbrbs.LbtbuQtQtQtQtQtQtQtQtQtQtQtQtQtQtQtQtQtQtQtQtQtQt",
"QtQtQtQtQtbvbwbxbyQtQtQtQtQtQtQtQtQtQtQtQtQtQtQtQtQtQtQtQtQtQtQt",
"QtQtQtQtQtQtbzbAbBQtQtQtQtQtQtQtQtQtQtQtQtQtQtQtQtQtQtQtQtQtQtQt"};
