/* XPM */
static char *bitcoin16[] = {
/* columns rows colors chars-per-pixel */
"16 16 46 1 ",
"  c None",
". c #15B14C",
"X c #1DB34B",
"o c #1EB34B",
"O c #36A944",
"+ c #3BAD45",
"@ c #28B54A",
"# c #29B54A",
"$ c #2AB64A",
"% c #2EB64A",
"& c #30B74A",
"* c #31B74A",
"= c #32B74A",
"- c #3AB949",
"; c #3BB949",
": c #3CB949",
"> c #4AB846",
", c #44BB48",
"< c #45BB48",
"1 c #4EBD48",
"2 c #50B645",
"3 c #51B745",
"4 c #51BE47",
"5 c #59BB46",
"6 c #5ABF47",
"7 c #5BC047",
"8 c #61C046",
"9 c #62C146",
"0 c #63C146",
"q c #6CC345",
"w c #6DC345",
"e c #6CC346",
"r c #6DC346",
"t c #75C545",
"y c #76C545",
"u c #77C545",
"i c #80C744",
"p c #81C744",
"a c #8AC943",
"s c #8BC943",
"d c #8CC943",
"f c #8DC943",
"g c #92CA43",
"h c #93CB43",
"j c #9ECD42",
"k c #A7CF41",
/* pixels */
"      k         ",
"      j j       ",
"     hhghhg     ",
"     ds    fa   ",
"      i     p   ",
"     tyyyt  yu  ",
"   qqwwwee  r   ",
"    000009855   ",
"     23667 +>   ",
"      O     41  ",
"      ,      <  ",
"      ;     -:  ",
"     &*    %=   ",
"    #@@#@@#$    ",
"      X o       ",
"      .         "
};
