/* XPM */
static char *bitcoin16[] = {
/* columns rows colors chars-per-pixel */
"16 16 33 1 ",
"  c None",
". c #37A860",
"X c #45B265",
"o c #53B469",
"O c #5CBA68",
"+ c #5ABD73",
"@ c #5EBC71",
"# c #53BC7F",
"$ c #5CBE7A",
"% c #64BE6D",
"& c #63BF74",
"* c #7EC55F",
"= c #69C16F",
"- c #6AC16F",
"; c #77C364",
": c #77C365",
"> c #70C26A",
", c #71C26A",
"< c #63C075",
"1 c #69C170",
"2 c #6AC170",
"3 c #93C94E",
"4 c #99CA49",
"5 c #8BC754",
"6 c #8AC755",
"7 c #8BC755",
"8 c #85C659",
"9 c #86C758",
"0 c #4DBB86",
"q c #4EBB86",
"w c #49BA89",
"e c #48BA8A",
"r c #54BC80",
/* pixels */
"     4  4       ",
"     3  3       ",
"    6576566     ",
"     89    8    ",
"     *      *   ",
"     ::::   ;   ",
"  >>>>>>>>  ,   ",
"   -=21111%O    ",
"     o@<&  X+   ",
"     .      $   ",
"     #      r   ",
"     q      0   ",
"     e     ew   ",
"    eeeeeee     ",
"     e  e       ",
"     e  e       "
};
