/* XPM */
static char *dummy[]={
"16 16 113 2",
"Qt c None",
"#S c #000000",
"#P c #008000",
".K c #009900",
"#t c #008000",
"#K c #006d00",
".e c #009224",
".s c #208020",
"#O c #1c8e1c",
".a c #128012",
".b c #0d790d",
".A c #0d860d",
".r c #0c860c",
"#s c #0b8516",
"#N c #128012",
"#C c #0f830f",
"#b c #0f800f",
"#D c #0e8315",
".# c #0d8013",
".f c #0c7c13",
".k c #138313",
".V c #107d10",
"#l c #108114",
"#U c #0f8013",
"#T c #0d8111",
".z c #108010",
".4 c #0e8111",
"#J c #108013",
"#L c #107e12",
".j c #0f8011",
".t c #0c7f10",
".l c #0a7f0e",
"#k c #0f8012",
".5 c #0f8012",
"#c c #0f8012",
".J c #0f8012",
".L c #0e8013",
".d c #0e8013",
"#u c #107f11",
"#R c #107f13",
"#I c #0d8011",
".B c #0d7f0f",
".g c #0f8113",
"#B c #0f8011",
".U c #0f7f12",
"#Q c #0f7f12",
"#r c #0f8012",
".c c #0f8012",
"#H c #0c7e0e",
"#F c #0f8012",
"#G c #0c7e10",
".q c #0f7e12",
"#M c #0f8012",
".m c #0e8011",
".u c #067d0a",
"#a c #0f8012",
"#E c #108013",
"#v c #0f8312",
".X c #037906",
".6 c #057a08",
".H c #087b0b",
"## c #087c0b",
"#j c #08810b",
".T c #097c0c",
"#A c #09800c",
"#d c #0b7d0e",
"#w c #0c7f0f",
"#m c #0e7f11",
".M c #0e8411",
".o c #0f7f12",
".p c #0f8112",
".W c #0f8213",
".n c #0f8312",
".h c #0f8313",
".I c #108213",
".y c #108313",
".3 c #108413",
".i c #108513",
".x c #128115",
"#z c #158618",
".N c #168319",
".w c #1a861d",
"#x c #1d881f",
"#n c #1f8822",
".C c #1f8d22",
".v c #218e24",
"#y c #288e2a",
".G c #359338",
"#q c #39963c",
".S c #439b45",
".2 c #4fa151",
".D c #55a557",
".0 c #5aa75c",
"#. c #5da85e",
"#i c #5da95f",
".9 c #5faa61",
"#e c #6ab06c",
"#h c #79b77a",
".8 c #8bc18c",
"#o c #8dc28f",
".Q c #8fc390",
".Y c #93c594",
"#g c #9bca9c",
".F c #a3cea4",
".E c #a5cfa6",
".O c #a9d1aa",
"#p c #b1d5b1",
".7 c #bddcbe",
".Z c #c0dec1",
".R c #d0e6d0",
".P c #d8ead8",
".1 c #e8f3e8",
"#f c #ecf5ec",
"QtQtQtQtQtQtQtQtQtQt.#.aQtQtQtQt",
"QtQtQtQtQtQtQtQtQt.b.c.d.eQtQtQt",
"QtQtQtQtQtQtQtQt.f.g.h.i.jQtQtQt",
"QtQtQtQtQtQt.k.l.m.n.o.p.q.rQtQt",
"QtQtQtQt.s.t.u.v.w.x.o.o.y.zQtQt",
"QtQtQt.A.B.C.D.E.F.G.H.o.I.JQtQt",
"QtQt.K.L.M.N.O.P.Q.R.S.T.p.UQtQt",
"QtQt.V.W.o.X.Y.Z.0.1.2.H.3.4QtQt",
"QtQt.5.y.o.6.7.8.9.1#.###a#bQtQt",
"QtQt#c.h#d#e#f#g#h#f#i#j#kQtQtQt",
"QtQt#l.h#m#n#o#p.8#q.M#r#sQtQtQt",
"QtQt#t#u#v#w#x#y#z#A#B#CQtQtQtQt",
"QtQtQt#D#E#F#G#H#I#J#KQtQtQtQtQt",
"QtQtQt#L#M#N.a#OQtQtQtQtQtQtQtQt",
"QtQt#P#Q#RQtQtQtQtQtQtQtQtQtQtQt",
"QtQt#S#T#UQtQtQtQtQtQtQtQtQtQtQt"};
