/* XPM */
static char *bitcoin32[] = {
/* columns rows colors chars-per-pixel */
"32 32 69 1 ",
"  c None",
". c #23994F",
"X c #269B51",
"o c #31A758",
"O c #36A658",
"+ c #3CA15A",
"@ c #3EB061",
"# c #43A860",
"$ c #48B060",
"% c #43B46D",
"& c #44B46D",
"* c #56B667",
"= c #53B468",
"- c #53BA6C",
"; c #57B86F",
": c #5ABD73",
"> c #5FBF76",
", c #55BD7E",
"< c #56BD7F",
"1 c #5DBE79",
"2 c #5ABE7C",
"3 c #63BE6E",
"4 c #61BF76",
"5 c #60BF77",
"6 c #62BF76",
"7 c #7FC55E",
"8 c #6EC26B",
"9 c #6FC26B",
"0 c #6BC16E",
"q c #6BC16F",
"w c #6DC26C",
"e c #6EC26C",
"r c #6CC16E",
"t c #6CC16F",
"y c #75C366",
"u c #78C463",
"i c #79C463",
"p c #7CC460",
"a c #78C464",
"s c #72C268",
"d c #72C368",
"f c #72C269",
"g c #67C071",
"h c #64C073",
"j c #64C074",
"k c #65C074",
"l c #68C071",
"z c #94C94D",
"x c #9BCB48",
"c c #98CA4A",
"v c #87C757",
"b c #8AC755",
"n c #8AC756",
"m c #8DC852",
"M c #8DC853",
"N c #83C65B",
"B c #86C658",
"V c #87C658",
"C c #87C758",
"Z c #80C55D",
"A c #80C55E",
"S c #91C950",
"D c #4FBB84",
"F c #4CBB87",
"G c #49BA89",
"H c #48BA8A",
"J c #49BA8A",
"K c #53BC81",
"L c #53BC82",
/* pixels */
"           x    xx              ",
"          cc    cc              ",
"          zz    zz              ",
"           S    SS              ",
"          MmM   Mm              ",
"        bbbbbbbbbbbbbbn         ",
"        vvCVCvvvvvvvvCCBB       ",
"          NN           NN       ",
"          AZ            Z7      ",
"          pp            pp      ",
"          iiuuiiua      ii      ",
"         yyyyyyyyyyy    yy      ",
"    fffffsffffsd        fs      ",
"     98888888888eew    88       ",
"      000000000000000qtrr       ",
"       lggggggggggggg3*$        ",
"         hjkjjjjjjjh=Oo@-       ",
"          +#;44446     :>5      ",
"          .X            11      ",
"          &%            22      ",
"          ,,             <<     ",
"          KL             KK     ",
"          DD            DD      ",
"          FF            FF      ",
"          GG           JGG      ",
"          HHH       HHHHH       ",
"        HHHHHHHHHHHHHHHH        ",
"          HHH  HHHH             ",
"           H    HH              ",
"          HH    HH              ",
"          HH    HH              ",
"           H    HH              "
};
