/* XPM */
static char *bitcoin128[] = {
/* columns rows colors chars-per-pixel */
"128 128 55 1 ",
"  c None",
". c #137839",
"X c #197F3A",
"o c #19833C",
"O c #1F8D3E",
"+ c #258D3E",
"@ c #168E41",
"# c #1D9642",
"$ c #1F9843",
"% c #259741",
"& c #2D9740",
"* c #249B43",
"= c #2B9F42",
"- c #339A40",
"; c #3A9F40",
": c #0FB04C",
"> c #14B14C",
", c #1CB34B",
"< c #27A144",
"1 c #2BA444",
"2 c #2FA845",
"3 c #30A644",
"4 c #38A643",
"5 c #35AD46",
"6 c #3CAB45",
"7 c #25B54A",
"8 c #2BB64A",
"9 c #3BB247",
"0 c #32B74A",
"q c #3EB548",
"w c #36B849",
"e c #3CB949",
"r c #41AA44",
"t c #44B647",
"y c #4DB445",
"u c #47B847",
"i c #4BBA47",
"p c #44BB48",
"a c #4BBC48",
"s c #54BE47",
"d c #59BF47",
"f c #5DC047",
"g c #64C146",
"h c #6BC346",
"j c #73C445",
"k c #7BC645",
"l c #81C744",
"z c #85C844",
"x c #8CCA43",
"c c #92CB43",
"v c #9BCD42",
"b c #A3CE42",
"n c #A9CF41",
"m c #A7D041",
"M c #ABD041",
/* pixels */
"                                               MMMM                   MMMM                                                      ",
"                                              nMMMMM                 MMMMMM                                                     ",
"                                             nnnMnMnn               nnnnMMM                                                     ",
"                                             nnmnnnnn               nnnnnnnn                                                    ",
"                                             mmmmnnbn               bnbnbmnn                                                    ",
"                                             mmmbnbnm               nbnbmmmn                                                    ",
"                                             mbbbbbbb               bbbnbbbb                                                    ",
"                                             mbbbbbbb               bbbbbbbb                                                    ",
"                                             bvbbbbbb               bbbbbbbb                                                    ",
"                                             bbbbbbvb               bvbbbbvb                                                    ",
"                                             bvbvbvbb               vbbvvbvb                                                    ",
"                                             vbvbvbvv               vvvbvbvb                                                    ",
"                                             mvvvvvvv               vvvvvvvv                                                    ",
"                                             vvvvvvvv               vvvvvvvv                                                    ",
"                                             vvvvvvvv               vvvvvvvv                                                    ",
"                                             cvvvvvvv               vvvvvvvv                                                    ",
"                                             vcvvvvvv               vvcvvcvv                                                    ",
"                                             vvcccccc               vcvcvvvc                                                    ",
"                                             vvccvcvv               cccvcccc                                                    ",
"                                   ccvcccccvccccccvcccccccvccvcccccvvccccvcvccvcccvcvcccvc                                      ",
"                                  cccccccccccccccccccccccccccccccccccccccccccccccccccccccccccc                                  ",
"                                 ccccccccccccccccccccccccccccccccccccccccccccccccccccccccccccccc                                ",
"                                 cccccccccccxccccccccccccccccxccccxccccccccccxcccxcccccccxcccccccc                              ",
"                                 cxxcxxcccxccxxcxxccxcxcxxcccxcxcxccxxccxcxxccxcxcxcxcxccxcxcxcxxxc                             ",
"                                 cxxxccxxxcxcxxxxcxxxxxccxxcxxxcxxxcxcxxcxxcxxxcxxxxxxcxxcxxxxxcxcxcx                           ",
"                                  cxxxxxxxxxxxxxxxxxxxxxxxxxxxxxxxxxxxxxxxxxxxxxxccxxxxxxxxxxxxxxxxxxx                          ",
"                                    xxxxxxxxxxxxxxxxxxxxxxxxxxcxxxxxcxxxxxxxxxxxxxxxxxxxxxxxxxxxxxxxxxx                         ",
"                                             xxxxxxxx                                   xxxxxxzxxxzxxxx                         ",
"                                             xxxxxxxx                                      xxxxxxxxzxxxz                        ",
"                                             zzxzzzzz                                        zzxzzxxzzzxx                       ",
"                                             zzzxzzzz                                          zzzxzzzzzx                       ",
"                                             zzzzzxzz                                           zzzzzzzzzz                      ",
"                                             zzzzzzzz                                            zzzzzzzzz                      ",
"                                             zzzlzzlz                                             lzlzzlzll                     ",
"                                             lkllllll                                             zllllllzl                     ",
"                                             llllllll                                              llllllll                     ",
"                                             lkzlllll                                              lllllllll                    ",
"                                             lkklkklk                                               kllkklkl                    ",
"                                             klkklklk                                               lkkklklk                    ",
"                                             lkkklkkk                                               klkkkkkk                    ",
"                                             kkkkkkkk   kkkkkkkkkkkkkkkk                            kkkkkkkk                    ",
"                                             kkkkkkkkkkkkkkkkkkkkkkkkkkkkkk                         kkkkkkkk                    ",
"                                             kkkkjjkkjkkkjkjjkkkkkjkkjkkkkkkk                       kkkjkkjk                    ",
"                                             jkkkjkkjkkjjkkjkjjkjkkjjkjkjkjjjkj                     jkjkjjkj                    ",
"                                           kkkjkkjjjjkjjkjkjjkjkkjhkkkjjkjkkjjjjj                   jkjkjkkj                    ",
"                                       jjkjjjjjjjjkjjjjjjjkjjjjjjkkkjjjkjjjjkkjjkj                  jjjjjjjj                    ",
"                                    jjjjjjjjjjjjjjjjjjjjjjjjjjjjhkkhkhjhjjjjjjjjjjj                 jjjjjjjj                    ",
"                  jj           jjjjjjjjjjjjjjjhjjjjjjjjjjjjjjjjjhhhkhjjjhjjjjjjjjjjjj              jjjjjjjjj                    ",
"                  jhjjjjhjjjjhjjjhjjjjhjhjjjjhjjjhjjjjhjhjjjjjhjkjhkjjjjjhjjjjhjjhjjjj             jjhhjhjjj                    ",
"                   jjhjhjjhjjjhjjjhjhjhjjjhjjjhjjjhjhjjjjjhjjjjjhj               jjhjhj            jjjjjjjh                     ",
"                    jhhhjhjhhjhjhjhjhjhjjhjhhjhjhjhjhjhhjhjhh                       hjhh          jhhhjhhhj                     ",
"                    hhjhhhhhhhhhhhhhhhhhhhhhhhhhhhhhhhhhhhhjhhhhjhhh                             hhhjhhhjhh                     ",
"                     hhhhhhhhhhhhhhhhjhhhhhhhhhhhhhhhjhhhhhhhhhhhhhhhhhhhh                       hhhhhhhhh                      ",
"                      hhhhhghhhhhhhhhhhhhhhhhhhhhhhhhhhhhhhhhhhhhhhhhhhhhhhhhh                  hhhhhhhhhh                      ",
"                       hhhghhhhhhhhghghhhhghhhghhhhghghhhghghhhhhhhhhhhghhhhghhhh              hhhhhhhghh                       ",
"                        hghhhhghhhhghhhghghhghhhghhghhhhhghhhgghhgghghghhghghhhghhhh         hhgghghhghh                        ",
"                         hhgghggghghghgghhghghgghgghghgghhghhhgghgghghghghhghhghhhhhgh     hghhgghhghhgh                        ",
"                          hghgghhggghgghgggghgghgggghgghggggggghghgggghgggghgggggggggggghgggggggggggggg                         ",
"                           ggggggggggggghgggggggggghgggghgggggggggghggggggggggghggggggghgggghggggghggg                          ",
"                            ggggggggggggggggggggggggggggggggggggggggggfgggggggggggggggggggggggggggggg                           ",
"                             gfggggfgggggggfggggggfgggggggfggggggfggggggfggggggggdhggggggggggdggggg                             ",
"                              gggfgggffggfgggffggfgggffggfgggffggggfggfgggfggfgfggfgggdggfgfggggdd                              ",
"                                fggffgfgfgdgfgfgfgfffgfgfgfgfgfgdgfggdgffggfgffgdgdgdggddgfgggy6**                              ",
"                                 fffffffffgdfffffffgffffffffffffgfffffffffffffffgdgdgdgdgffdy4****2                             ",
"                                   ffffggdffdgdgffgdffddffffffffdfffffffffffffffffffffgfdyr<$$*<1226q                           ",
"                                    ffffdffddddddfdgdfddfffffffffffffffffffffffffffddar3*##$*<12556qtt                          ",
"                                      dddddddgddddddfdddsdfdsdffddddddsfdddddfsfddf   @@#**<12559qtuuas                         ",
"                                        ddddddddddddddddsffsfssfddddfsfsdddddsfsd         12559qttuiasdd                        ",
"                                          ddddfsdsfsdsddfaffafffddfsfssfsfsddd               qttuaasddddd                       ",
"                                            ;;ysdfsfdsddsffsfffafssdsffffsf                   aaasdddsssd                       ",
"                                             .X+-ruassdsssasfaafssssssss                        ddssssdsss                      ",
"                                             oXXooo%= sssfafafffss                               ssssssssss                     ",
"                                             ####@#@%                                             sssssssss                     ",
"                                             %%%&&%*&                                              sssassass                    ",
"                                             ===&====                                              ssassssas                    ",
"                                             333=3323                                               asasaasas                   ",
"                                             55555555                                               asaaassaa                   ",
"                                             99599599                                                asaaaaaa                   ",
"                                             q9qeqqqe                                                aaaaaasas                  ",
"                                             ptpppppt                                                aaaaaaaaa                  ",
"                                             apaapppp                                                 ppaaaapa                  ",
"                                             apapafef                                                 pfppapaa                  ",
"                                             ppaapppe                                                 apappapa                  ",
"                                             apppappp                                                 ppapappp                  ",
"                                             pppppppp                                                 pppppppp                  ",
"                                             pppppppp                                                 pppppppp                  ",
"                                             pppppepp                                                 pppppepp                  ",
"                                             peppeppp                                                 epeepppp                  ",
"                                             peeepeep                                                peeepepep                  ",
"                                             eepepepe                                                eeppeeeee                  ",
"                                             eeeeeeee                                                eeeeeeee                   ",
"                                             eeeeeeee                                               eeeeeeeee                   ",
"                                             eeeeeeee                                               eeeeeeeee                   ",
"                                             eeeweewe                                              weeweeewe                    ",
"                                             e0eew0ee                                              ewewewwwe                    ",
"                                             0e0wwee0                                             wewwwwweww                    ",
"                                             wwwwwwww                                            wwwwwwwwww                     ",
"                                             0wwwww0w                                           0wwwwwwww0w                     ",
"                                             000000w0                                          00000w0000w                      ",
"                                             00000000                                        000000000000                       ",
"                                             00000000                                      0000000000008                        ",
"                                             00080000                                   0000080080008000                        ",
"                                   80888000088800888808008080888080888800808080808088880808880888808088                         ",
"                                  80888888888088880888888880888888080888880888888808088888880888808888                          ",
"                                 8888888888888888888888888888888888888888888888088888888888880888888                            ",
"                                 888888888888888888888888888888888888888888888888888888888888888888                             ",
"                                 8888788877878888787888788788887887887877878878788888787878878788                               ",
"                                 87778787887877878787878778778788787787887887778877778788777788                                 ",
"                                  78877877787887787877877787788778778777787787788778877887787                                   ",
"                                   777777877777777777777877777777777777777777777777777777                                       ",
"                                             77777777               77777777                                                    ",
"                                             7,777,77               ,777,777                                                    ",
"                                             77,,7777               7,77,777                                                    ",
"                                             ,,777,77               7,,7,7,7                                                    ",
"                                             7,,,,,,,               7,7,,,77                                                    ",
"                                             ,777,7,,               ,,,,7,,,                                                    ",
"                                             ,,,,,,,,               7,,,7,,,                                                    ",
"                                             ,,,,,,,7               ,,,,,,,,                                                    ",
"                                             ,,,,,,,,               ,,>,,,>,                                                    ",
"                                             ,,>,>,,>               ,,,,,>,,                                                    ",
"                                             ,,,>,,,>               ,>,,>,>>                                                    ",
"                                             >>>>>>,>               >>>>>>,>                                                    ",
"                                             >>>>,>>,               ,>>>,>>,                                                    ",
"                                             >>>>>>>:               >>>>>>>>                                                    ",
"                                             >>>>>>>>               >>>>>>>>                                                    ",
"                                             >>>:>:>:               >>>>>>>                                                     ",
"                                              >::>>:                 :::::>                                                     ",
"                                               ::::                   ::::                                                      "
};
