/* XPM */
static char *bitcoin64[] = {
/* columns rows colors chars-per-pixel */
"64 64 134 2 ",
"   c None",
".  c #1A823B",
"X  c #20883D",
"o  c #21913F",
"O  c #22923F",
"+  c #2C953F",
"@  c #1D9642",
"#  c #239340",
"$  c #259D43",
"%  c #299F43",
"&  c #17B24B",
"*  c #10B04C",
"=  c #12B14C",
"-  c #15B14C",
";  c #1AB24B",
":  c #1CB34B",
">  c #1FB34B",
",  c #27A044",
"<  c #2DA043",
"1  c #2DA343",
"2  c #2EA343",
"3  c #28A144",
"4  c #37A643",
"5  c #38A142",
"6  c #31A845",
"7  c #31A945",
"8  c #37AF46",
"9  c #3BA844",
"0  c #39AF46",
"q  c #21B44B",
"w  c #24B44B",
"e  c #24B54B",
"r  c #26B54A",
"t  c #27B54A",
"y  c #29B54A",
"u  c #2BB64A",
"i  c #2CB64A",
"p  c #2DB64A",
"a  c #2EB64A",
"s  c #33B749",
"d  c #30B74A",
"f  c #32B74A",
"g  c #35B849",
"h  c #37B849",
"j  c #38B849",
"k  c #3AB949",
"l  c #3CB949",
"z  c #3DB949",
"x  c #3FBA49",
"c  c #40B446",
"v  c #43B546",
"b  c #48B145",
"n  c #4AB044",
"m  c #49B245",
"M  c #4EB545",
"N  c #4FB645",
"B  c #46B847",
"V  c #48B847",
"C  c #4EBB47",
"Z  c #4FBB47",
"A  c #40B748",
"S  c #41B748",
"D  c #42B848",
"F  c #41BA48",
"G  c #44BB48",
"H  c #46BB48",
"J  c #47BB48",
"K  c #48BC48",
"L  c #49BC48",
"P  c #4BBC48",
"I  c #4EBD48",
"U  c #56BB46",
"Y  c #50BD47",
"T  c #53BD47",
"R  c #52BE47",
"E  c #53BE47",
"W  c #56BD47",
"Q  c #55BE47",
"!  c #56BE47",
"~  c #57BE47",
"^  c #56BF47",
"/  c #57BF47",
"(  c #58BF47",
")  c #5BBE46",
"_  c #5ABF47",
"`  c #5BBF47",
"'  c #5CBD46",
"]  c #5BC047",
"[  c #5CC047",
"{  c #5DC047",
"}  c #5FC046",
"|  c #60C046",
" . c #60C146",
".. c #61C146",
"X. c #62C146",
"o. c #64C146",
"O. c #66C246",
"+. c #67C246",
"@. c #69C246",
"#. c #6BC346",
"$. c #6EC345",
"%. c #70C445",
"&. c #71C445",
"*. c #72C445",
"=. c #73C445",
"-. c #75C545",
";. c #77C545",
":. c #78C545",
">. c #7AC645",
",. c #7DC644",
"<. c #7FC744",
"1. c #82C744",
"2. c #84C844",
"3. c #86C844",
"4. c #87C844",
"5. c #89C943",
"6. c #8AC943",
"7. c #8BC943",
"8. c #8CC943",
"9. c #8ECA43",
"0. c #90CA43",
"q. c #91CA43",
"w. c #93CB43",
"e. c #95CB43",
"r. c #95CC43",
"t. c #98CC42",
"y. c #9ACC42",
"u. c #9DCD42",
"i. c #9FCD42",
"p. c #A2CE42",
"a. c #A7CF41",
"s. c #A4CE42",
"d. c #A9CF41",
"f. c #ABD041",
/* pixels */
"                                              f.f.f.                  f.f.                                                      ",
"                                              d.d.d.                d.d.d.d.                                                    ",
"                                              a.a.a.                a.a.a.a.                                                    ",
"                                              s.s.s.                s.s.s.s.                                                    ",
"                                              p.p.p.                p.p.p.p.                                                    ",
"                                              i.i.i.                i.i.i.i.                                                    ",
"                                              u.u.u.                u.u.u.u.                                                    ",
"                                              y.y.y.                y.y.y.y.                                                    ",
"                                              t.t.t.                t.t.t.t.                                                    ",
"                                    e.e.e.r.e.e.e.e.e.e.e.e.e.e.e.e.e.e.e.e.e.e.e.e.e.                                          ",
"                                  w.w.w.w.w.w.w.w.w.w.w.w.w.w.w.w.w.w.w.w.w.w.w.w.w.w.w.w.w.w.                                  ",
"                                q.0.0.0.0.0.0.0.0.0.0.0.0.0.0.0.0.0.0.0.0.0.0.0.0.0.0.0.0.0.0.0.0.                              ",
"                                  9.9.9.9.9.9.9.9.9.9.9.9.9.9.9.9.9.9.9.9.9.9.9.9.9.9.9.9.9.9.9.9.9.9.                          ",
"                                            8.7.7.7.8.                                8.8.8.7.7.7.7.7.7.                        ",
"                                            5.5.5.5.                                        6.5.5.5.5.5.                        ",
"                                            4.4.3.3.                                            4.3.3.4.3.                      ",
"                                            2.2.2.2.                                              2.2.2.2.                      ",
"                                            1.1.1.1.                                              1.1.1.1.1.                    ",
"                                            <.<.<.<.                                                <.<.<.<.                    ",
"                                            ,.,.,.,.                                                ,.,.,.,.                    ",
"                                            >.>.>.>.>.>.>.>.>.>.>.>.>.>.>.                          >.>.>.>.                    ",
"                                            :.:.:.:.:.:.:.:.:.:.:.:.:.:.:.:.;.                      :.:.:.:.                    ",
"                                          -.-.-.-.-.-.-.-.-.-.-.-.-.-.-.-.-.-.-.-.                  -.-.-.-.                    ",
"                                  *.=.=.=.=.=.=.=.=.=.=.=.=.=.=.=.=.=.=.=.=.=.=.=.=.                =.=.=.=.                    ",
"                  &.%.%.%.%.%.%.%.%.%.%.%.%.%.%.%.%.%.%.%.%.%.&.&.&.&.      &.&.&.&.%.            %.%.%.%.%.                    ",
"                    $.$.$.$.$.$.$.$.$.$.$.$.$.$.$.$.$.$.$.$.$.$.                                  $.$.$.$.                      ",
"                      #.#.#.#.#.#.#.#.#.#.#.#.#.#.#.#.#.#.#.#.#.#.#.#.#.#.#.                    #.#.#.#.#.                      ",
"                        @.@.@.@.@.@.@.@.@.@.@.@.@.@.@.@.@.@.@.@.@.@.@.@.@.@.@.@.@.            @.@.@.@.@.                        ",
"                          O.O.O.O.O.O.O.O.O.O.O.O.O.O.O.O.O.O.O.O.O.O.O.O.O.O.O.O.O.O.O.  O.O.O.O.O.O.+.                        ",
"                            o.o.o.o.o.o.o.o.o.o.o.o.o.o.o.o.o.o.o.o.o.o.o.o.o.o.o.o.o.o.o.o.o.o.o.o.o.                          ",
"                              X...........................................................X.X.| '                               ",
"                                } } } } } } } } } } } } } } } } } } } } } } } } } } }  . .) M 4 %                               ",
"                                    { [ [ [ [ [ [ [ [ [ [ [ [ [ [ [ [ [ [ [ [ [ [ [ U m 9 < $ 3 6 0 v                           ",
"                                        _ _ ] ] _ _ _ _ _ _ _ _ _ _ _ _ _ _ _ _ `       @ , 7 0 c V Z !                         ",
"                                            n N W ( ( / ( ( ( ( ( / ( ( ( ( (                 B C T ~ ( /                       ",
"                                            . X + 5 b ^ Q ! ! Q ! ! !                           Q Q Q Q Q                       ",
"                                            # O o o                                               E E E E R                     ",
"                                            2 1 1 1                                                 Y Y Y Y                     ",
"                                            8 8 8 8                                                 I I I I I                   ",
"                                            D S A A                                                   P P P P                   ",
"                                            L K J J                                                   L L L L                   ",
"                                            H H H H                                                   H H H H                   ",
"                                            G G G G                                                   G G G G                   ",
"                                            F F F F                                                   F F F F                   ",
"                                            x x x x                                                   x x x x                   ",
"                                            l l l l                                                 l l l l z                   ",
"                                            k k k k                                                 k k k k                     ",
"                                            h h h h                                               h j h h j                     ",
"                                            g g g g                                             g g g g g                       ",
"                                            s s s s                                           f s s s s s                       ",
"                                            d d d d d                                     d d d d d d d                         ",
"                                  p p p p p a a a a p p p p p p p p p p p p p p p p p a a a a a a a a                           ",
"                                  u u u u u u u u u u u u u u u u u u u u u u u u u u u u u u u u i                             ",
"                                  y y y y y y y y y y y y y y y y y y y y y y y y y y y y y y y                                 ",
"                                  t r r r r r r r r r r r r r r r r r r r r r r r r r t t                                       ",
"                                            e w w w w               w w w w                                                     ",
"                                              q q q                 q q q q                                                     ",
"                                              > > >                 > > > >                                                     ",
"                                              : : :                 : : : :                                                     ",
"                                              ; ; ;                 ; ; ; ;                                                     ",
"                                              & & &                 & & & &                                                     ",
"                                              - - -                 - - - -                                                     ",
"                                              = = =                 = = = =                                                     ",
"                                              * * *                   * *                                                       "
};
